# xmcd
#
# Track frame offsets:
#	150
#	22252
#	39159
#	75856
#	89215
#	115817
#	136343
#	149601
#	175633
#	192470
#	220702
#	234272
#
# Disc length: 3577 seconds
#
# Revision: 1
# Processed by: cddbd v1.5.2PL0 Copyright (c) Steve Scherf et al.
# Submitted via: audiograbber 1.83.01
#
DISCID=9f0df70c
DTITLE=Jochen Volpert - Session 52.2
DYEAR=2015
DGENRE=Blues
TTITLE0=Cissy Strut
TTITLE1=Walk in my Shadow
TTITLE2=Gimme Shelter
TTITLE3=It´s your thing
TTITLE4=Put a spell on you
TTITLE5=Ghetto Boy
TTITLE6=Something
TTITLE7=All along the watchtower
TTITLE8=Walk in my Shadow - acoustic
TTITLE9=Wuerzblues
TTITLE10=I´m a man
TTITLE11=Can´t stand my Strat
EXTD=
EXTT0=
EXTT1=
EXTT2=
EXTT3=
EXTT4=
EXTT5=
EXTT6=
EXTT7=
EXTT8=
EXTT9=
EXTT10=
EXTT11=
PLAYORDER=
